<svg width="97" height="43" viewBox="0 0 97 43" fill="none" xmlns="http://www.w3.org/2000/svg">
<path d="M61 34.5C61 39.1944 64.8056 43 69.5 43L88.5 43C93.1944 43 97 39.1944 97 34.5C97 29.8056 93.1944 26 88.5 26L69.5 26C64.8056 26 61 29.8056 61 34.5Z" fill="#AB528D" fill-opacity="0.15"/>
<path d="M0 8.5C0 13.1944 3.80558 17 8.5 17L27.5 17C32.1944 17 36 13.1944 36 8.5C36 3.80558 32.1944 -2.02656e-06 27.5 -2.02656e-06L8.5 -2.02656e-06C3.80558 -2.02656e-06 0 3.80558 0 8.5Z" fill="#AB528D" fill-opacity="0.15"/>
<path d="M49 12.5C49 17.1944 52.8056 21 57.5 21L58.5 21C63.1944 21 67 17.1944 67 12.5C67 7.80558 63.1944 4 58.5 4L57.5 4C52.8056 4 49 7.80558 49 12.5Z" fill="#AB528D" fill-opacity="0.15"/>
<path d="M27 34C27 38.6944 30.8056 42.5 35.5 42.5H36.5C41.1944 42.5 45 38.6944 45 34C45 29.3056 41.1944 25.5 36.5 25.5L35.5 25.5C30.8056 25.5 27 29.3056 27 34Z" fill="#AB528D" fill-opacity="0.15"/>
</svg>
