<svg width="394" height="393" viewBox="0 0 394 393" fill="none" xmlns="http://www.w3.org/2000/svg">
<path d="M39.3503 314.658C26.9995 314.658 16.9518 304.61 16.9518 292.26V89.3761C16.9518 77.0254 26.9995 66.9776 39.3503 66.9776H353.948C366.298 66.9776 376.346 77.0254 376.346 89.3761V292.26C376.346 304.61 366.298 314.658 353.948 314.658H39.3503Z" fill="#BF589C"/>
<path d="M362.561 272.592C362.561 277.33 358.685 281.207 353.946 281.207H39.3503C34.6117 281.207 30.7351 277.33 30.7351 272.592V89.3761C30.7351 84.6375 34.6117 80.7609 39.3503 80.7609H353.948C358.686 80.7609 362.563 84.6375 362.563 89.3761V272.592H362.561Z" fill="#F46275"/>
<path d="M60.336 272.592V89.3761C60.336 84.6375 64.2125 80.7609 68.9512 80.7609H39.3503C34.6117 80.7609 30.7351 84.6375 30.7351 89.3761V272.592C30.7351 277.33 34.6117 281.207 39.3503 281.207H68.9512C64.2125 281.205 60.336 277.329 60.336 272.592Z" fill="#F43075"/>
<path d="M332.96 272.592V89.3761C332.96 84.6375 329.084 80.7609 324.345 80.7609H353.946C358.685 80.7609 362.561 84.6375 362.561 89.3761V272.592C362.561 277.33 358.685 281.207 353.946 281.207H324.345C329.084 281.205 332.96 277.329 332.96 272.592Z" fill="#F48875"/>
<path opacity="0.96" d="M145.429 314.658H247.867V345.829H145.429V314.658Z" fill="#F8AF23"/>
<g opacity="0.96">
<path d="M145.429 314.658H175.03V345.829H145.429V314.658Z" fill="#F87023"/>
</g>
<g opacity="0.96">
<path d="M218.268 314.658H247.869V345.829H218.268V314.658Z" fill="#F8D323"/>
</g>
<path d="M196.648 305.308C200.722 305.308 204.024 302.006 204.024 297.932C204.024 293.859 200.722 290.556 196.648 290.556C192.575 290.556 189.272 293.859 189.272 297.932C189.272 302.006 192.575 305.308 196.648 305.308Z" fill="#FDFDFD"/>
<path d="M279.73 371.155H113.565V354.026C113.565 349.501 117.235 345.831 121.76 345.831H271.534C276.06 345.831 279.73 349.501 279.73 354.026V371.155Z" fill="#9E9E9E"/>
<path d="M151.361 345.831H121.76C117.235 345.831 113.565 349.501 113.565 354.026V371.155H143.165V354.026C143.165 349.499 146.835 345.831 151.361 345.831Z" fill="#707070"/>
<path d="M241.935 345.831H271.536C276.062 345.831 279.732 349.501 279.732 354.026V371.155H250.131V354.026C250.131 349.499 246.461 345.831 241.935 345.831Z" fill="#CECECE"/>
<path d="M276.965 208.029H116.331C101.394 208.029 89.286 195.92 89.286 180.983C89.286 166.046 101.394 153.938 116.331 153.938H276.965C291.902 153.938 304.01 166.046 304.01 180.983C304.01 195.92 291.902 208.029 276.965 208.029Z" fill="#DBDADA"/>
<path d="M196.648 131.497C232.281 131.497 261.167 102.61 261.167 66.9776C261.167 31.3448 232.281 2.45869 196.648 2.45869C161.015 2.45869 132.129 31.3448 132.129 66.9776C132.129 102.61 161.015 131.497 196.648 131.497Z" fill="#F8AF23"/>
<path d="M161.728 66.9776C161.728 36.4392 182.952 10.8756 211.448 4.18469C206.693 3.06845 201.743 2.45869 196.648 2.45869C161.015 2.45869 132.129 31.3449 132.129 66.9776C132.129 102.61 161.015 131.497 196.648 131.497C201.744 131.497 206.694 130.887 211.448 129.771C182.952 123.08 161.728 97.516 161.728 66.9776Z" fill="#F87023"/>
<path d="M39.3486 317.118H142.97V343.372H121.76C115.886 343.372 111.106 348.152 111.106 354.026V368.698H32.2447C30.8875 368.698 29.786 369.798 29.786 371.157C29.786 372.516 30.8875 373.615 32.2447 373.615H113.565H279.73H361.052C362.409 373.615 363.51 372.516 363.51 371.157C363.51 369.798 362.409 368.698 361.052 368.698H282.19V354.026C282.19 348.152 277.411 343.372 271.536 343.372H250.328V317.118H353.949C367.654 317.118 378.805 305.967 378.805 292.261V89.3761C378.805 75.6698 367.654 64.5189 353.949 64.5189H263.565C262.264 28.7239 232.755 0 196.648 0C160.542 0 131.033 28.7239 129.733 64.5206H39.3486C25.644 64.5206 14.4931 75.6715 14.4931 89.3778V292.261C14.4931 305.966 25.644 317.118 39.3486 317.118ZM277.273 354.026V368.698H116.023V354.026C116.023 350.863 118.597 348.289 121.76 348.289H145.427H247.866H271.533C274.698 348.289 277.273 350.863 277.273 354.026ZM245.409 343.372H147.888V317.118H245.409V343.372ZM194.189 133.893V151.479H116.331C100.063 151.479 86.8273 164.715 86.8273 180.983C86.8273 197.251 100.063 210.487 116.331 210.487H276.965C293.233 210.487 306.469 197.251 306.469 180.983C306.469 164.715 293.233 151.479 276.965 151.479H199.107V133.893C229.35 132.795 254.537 111.562 261.624 83.2196H353.948C357.341 83.2196 360.103 85.9815 360.103 89.3761V272.59C360.103 275.985 357.341 278.747 353.948 278.747H39.3486C35.9557 278.747 33.1938 275.985 33.1938 272.59V89.3761C33.1938 85.9815 35.9557 83.2196 39.3486 83.2196H131.672C138.759 111.562 163.946 132.795 194.189 133.893ZM276.965 156.396C290.522 156.396 301.552 167.426 301.552 180.983C301.552 194.54 290.522 205.57 276.965 205.57H116.331C102.774 205.57 91.7447 194.54 91.7447 180.983C91.7447 167.426 102.774 156.396 116.331 156.396H276.965ZM196.648 4.91735C230.868 4.91735 258.708 32.7578 258.708 66.9776C258.708 101.197 230.868 129.038 196.648 129.038C162.428 129.038 134.588 101.199 134.588 66.9792C134.588 32.7578 162.428 4.91735 196.648 4.91735ZM19.4104 89.3761C19.4104 78.3809 28.3551 69.4363 39.3486 69.4363H129.733C129.843 72.4457 130.151 75.4043 130.647 78.3023H39.3486C33.2429 78.3023 28.2764 83.2704 28.2764 89.3761V272.59C28.2764 278.696 33.2429 283.664 39.3486 283.664H353.948C360.053 283.664 365.02 278.696 365.02 272.59V89.3761C365.02 83.2704 360.053 78.3023 353.948 78.3023H262.65C263.145 75.4043 263.455 72.4473 263.565 69.4363H353.949C364.943 69.4363 373.888 78.3809 373.888 89.3761V292.259C373.888 303.255 364.943 312.199 353.949 312.199H247.869H145.429H39.3486C28.3551 312.199 19.4104 303.255 19.4104 292.259V89.3761Z" fill="#38085B"/>
<path d="M196.648 307.767C202.072 307.767 206.483 303.356 206.483 297.932C206.483 292.509 202.072 288.098 196.648 288.098C191.224 288.098 186.813 292.509 186.813 297.932C186.813 303.356 191.224 307.767 196.648 307.767ZM196.648 293.015C199.359 293.015 201.566 295.221 201.566 297.932C201.566 300.644 199.359 302.85 196.648 302.85C193.937 302.85 191.731 300.644 191.731 297.932C191.731 295.221 193.937 293.015 196.648 293.015Z" fill="#3F3679"/>
<path d="M32.2447 387.622H2.45868C1.10149 387.622 0 388.722 0 390.08C0 391.439 1.10149 392.539 2.45868 392.539H32.2447C33.6019 392.539 34.7034 391.439 34.7034 390.08C34.7034 388.722 33.6019 387.622 32.2447 387.622Z" fill="#38085B"/>
<path d="M390.838 387.622H361.052C359.694 387.622 358.593 388.722 358.593 390.08C358.593 391.439 359.694 392.539 361.052 392.539H390.838C392.195 392.539 393.296 391.439 393.296 390.08C393.296 388.722 392.195 387.622 390.838 387.622Z" fill="#38085B"/>
<path d="M337.265 387.622H56.0316C54.6744 387.622 53.5729 388.722 53.5729 390.08C53.5729 391.439 54.6744 392.539 56.0316 392.539H337.265C338.622 392.539 339.723 391.439 339.723 390.08C339.723 388.722 338.622 387.622 337.265 387.622Z" fill="#38085B"/>
<path d="M2.45868 373.614H15.2487C16.6059 373.614 17.7074 372.514 17.7074 371.155C17.7074 369.796 16.6059 368.696 15.2487 368.696H2.45868C1.10149 368.696 0 369.796 0 371.155C0 372.514 1.10149 373.614 2.45868 373.614Z" fill="#38085B"/>
<path d="M375.589 371.155C375.589 372.514 376.69 373.614 378.048 373.614H390.838C392.195 373.614 393.296 372.514 393.296 371.155C393.296 369.796 392.195 368.696 390.838 368.696H378.048C376.69 368.696 375.589 369.798 375.589 371.155Z" fill="#38085B"/>
<path d="M187.907 183.442H205.39C206.747 183.442 207.848 182.342 207.848 180.983C207.848 179.624 206.747 178.524 205.39 178.524H187.907C186.55 178.524 185.448 179.624 185.448 180.983C185.448 182.342 186.55 183.442 187.907 183.442Z" fill="#3F3679"/>
<path d="M226.765 183.442H266.104C267.461 183.442 268.563 182.342 268.563 180.983C268.563 179.624 267.461 178.524 266.104 178.524H226.765C225.408 178.524 224.307 179.624 224.307 180.983C224.307 182.342 225.408 183.442 226.765 183.442Z" fill="#3F3679"/>
<path d="M127.192 183.442H166.531C167.888 183.442 168.99 182.342 168.99 180.983C168.99 179.624 167.888 178.524 166.531 178.524H127.192C125.835 178.524 124.734 179.624 124.734 180.983C124.734 182.342 125.835 183.442 127.192 183.442Z" fill="#3F3679"/>
<path d="M225.728 74.611C232.294 74.611 237.636 69.2691 237.636 62.7028C237.636 56.1381 232.294 50.7962 225.728 50.7962C219.161 50.7962 213.82 56.1381 213.82 62.7028C213.821 69.2707 219.161 74.611 225.728 74.611ZM225.728 55.7152C229.583 55.7152 232.719 58.8509 232.719 62.7044C232.719 66.5596 229.583 69.6953 225.728 69.6953C221.873 69.6953 218.737 66.5596 218.737 62.7044C218.739 58.8509 221.874 55.7152 225.728 55.7152Z" fill="#3F3679"/>
</svg>
